<?xml version="1.0" standalone="no"?>
<!DOCTYPE svg PUBLIC "-//W3C//DTD SVG 20010904//EN"
 "http://www.w3.org/TR/2001/REC-SVG-20010904/DTD/svg10.dtd">
<svg version="1.0" xmlns="http://www.w3.org/2000/svg"
 width="753.000000pt" height="753.000000pt" viewBox="0 0 753.000000 753.000000"
 preserveAspectRatio="xMidYMid meet">

<g transform="translate(0.000000,753.000000) scale(0.100000,-0.100000)"
fill="#ffffff" stroke="none">
<path d="M839 7515 c-393 -57 -701 -336 -811 -735 l-23 -85 0 -2925 0 -2925
23 -90 c28 -110 103 -269 166 -352 105 -139 270 -265 431 -328 87 -34 220 -61
348 -70 l97 -7 0 2989 0 2988 960 -960 960 -960 960 960 960 960 0 -1090 0
-1090 535 -535 535 -535 0 2403 0 2402 -512 0 -513 0 -980 -980 c-539 -539
-982 -980 -985 -980 -3 0 -437 432 -965 961 -660 661 -972 967 -1000 980 -46
21 -66 22 -186 4z"/>
<path d="M6465 7519 c-3 -8 -6 -1353 -8 -2989 l-2 -2975 -960 957 -960 957
-957 -957 -958 -957 0 1080 c-1 820 -4 1087 -13 1107 -13 30 -1044 1068 -1052
1059 -3 -2 -5 -1084 -5 -2403 l0 -2398 500 0 c416 0 506 2 528 14 15 8 462
450 995 983 l967 968 953 -953 c523 -524 966 -962 982 -972 56 -35 117 -42
220 -25 429 69 763 410 825 840 8 59 10 855 8 2960 l-3 2880 -22 77 c-56 198
-138 337 -277 473 -178 174 -383 262 -659 281 -78 6 -98 4 -102 -7z"/>
</g>
</svg>
